<?xml version="1.0" encoding="utf-8"?>
<!-- Generator: Adobe Illustrator 26.1.0, SVG Export Plug-In . SVG Version: 6.00 Build 0)  -->
<svg version="1.1" id="Layer_1" xmlns="http://www.w3.org/2000/svg" xmlns:xlink="http://www.w3.org/1999/xlink" x="0px" y="0px"
	 viewBox="0 0 595.28 841.89" style="enable-background:new 0 0 595.28 841.89;" xml:space="preserve">
<style type="text/css">
	.st0{fill:#FFFFFF;}
</style>
<g>
	<circle class="st0" cx="209.37" cy="395.04" r="17.5"/>
	<circle class="st0" cx="387.59" cy="395.04" r="17.5"/>
	<path class="st0" d="M298.41,385.54c-5.52,0-10-4.48-10-10c0-5.44,4.35-9.86,9.76-9.99l-27.08-17.7l17.02,27.7l-16.99,27.68
		l27.05-17.66l27.53,16.89l-17.31-26.51C308.17,381.28,303.79,385.54,298.41,385.54z"/>
	<path class="st0" d="M308.39,375.15l17.34-26.53l-27.56,16.93c0.08,0,0.16-0.01,0.24-0.01
		C303.8,365.54,308.18,369.81,308.39,375.15z"/>
	<path class="st0" d="M309.21,365.12l-9.95-47.51l-11.33,47.43l-47.38,11.34l47.42,9.96l11.28,47.12l9.91-47.18l47.24-9.89
		L309.21,365.12z M298.41,385.54c-5.52,0-10-4.48-10-10s4.48-10,10-10s10,4.48,10,10S303.93,385.54,298.41,385.54z"/>
	<circle class="st0" cx="274.7" cy="479.01" r="11.5"/>
	<path class="st0" d="M513.04,445.49l-54.87-13c-3.51-35.11-18.29-66.9-40.65-91.72l8.67-13.34c25.23,26.73,42.26,61.29,46.97,99.6
		l6.21,1.47c-4.53-41.01-22.68-77.97-49.81-106.25l8.6-13.23c0.75-1.16-0.3-2.15-1.43-1.35l-12.8,8.95
		c-28.27-27.04-65.18-45.12-106.12-49.63l1.78,6.25c38.2,4.75,72.66,21.73,99.32,46.89l-12.92,9.03
		c-24.87-22.55-56.81-37.44-92.09-40.97l-15.63-54.96c-0.56-1.98-3.39-1.92-3.87,0.09l-13,54.87
		c-34.23,3.43-65.31,17.54-89.85,38.98l-13.38-8.69c26.46-24.29,60.32-40.65,97.77-45.25l1.47-6.21
		c-40.13,4.44-76.39,21.92-104.43,48.1l-13.04-8.48c-1.16-0.75-2.15,0.3-1.35,1.43l8.76,12.53
		c-28.26,28.72-47.12,66.71-51.55,108.95l6.24-1.78c4.69-39.5,22.44-75.03,48.8-102.17l9.01,12.88
		c-23.54,25.14-39.13,57.81-42.75,94.01l-54.95,15.63c-1.98,0.56-1.92,3.39,0.09,3.87l54.87,13c8.15,81.48,76.91,145.1,160.54,145.1
		c83.63,0,152.39-63.62,160.54-145.11l54.95-15.63C515.11,448.79,515.05,445.97,513.04,445.49z M208.23,560.8
		c-1.96-3.5-1.91-7.75-1.23-13.24c1.17-9.37,2.13-18.76,3.18-28.14c0.21,0.01,0.42,0.01,0.63,0.02c1.75,14.15,3.51,32.53,5.32,47.26
		C213.43,564.83,210.8,562.86,208.23,560.8z M259.63,587.02c-10.01-2.74-19.67-6.56-28.83-11.4c-1.31-1.92-1.6-5.25-1.55-7.35
		c0.33-15.13,0.61-30.26,0.79-45.4c0.04-3.06,1.23-4.67,4.29-4.92c1.49-0.12,2.97-0.53,4.45-0.55c3.96-0.05,4.68-1.75,3.6-5.43
		c-4.19-14.2-8.14-28.47-12.17-42.71c-0.67-2.36-1.24-4.73-0.52-8.1c4.25,8.38,8.17,15.99,11.99,23.65
		c3.45,6.93,7.84,13.15,13.61,18.32c4.12,3.7,5.98,8.23,5.85,13.73C260.64,537.92,260.01,565.72,259.63,587.02z M269.02,589.25
		c1.29-10.02,3.82-24.87,5.13-33.8c0.16,0.06,0.33,0.13,0.49,0.19c1.25,9.15,3.56,25.38,4.91,35.33
		C276,590.52,272.49,589.95,269.02,589.25z M297.64,592.09c-3.01,0-6-0.1-8.98-0.29c-0.12-17.93-0.25-40.94-1.22-58.56
		c-0.15-2.65-0.02-5.31,0.85-8.3c1.98,4.42,3.98,8.83,5.92,13.26c1.18,2.7,2.51,5.15,5.95,5.23c3.42,0.08,4.32-2.64,5.48-5.01
		c2.19-4.45,4.33-8.93,6.49-13.4c-1.3,9.91-4.14,19.14-7.18,28.31c-1.22,3.69-0.42,5.81,3.44,6.49c3.42,0.6,4.56,2.59,4.51,5.98
		c-0.1,6.04-0.04,18.26,0.19,25.46C308,591.81,302.84,592.09,297.64,592.09z M321.8,590.07c0.91-7.49,2.21-19.41,3.1-25.96
		c0.4,0,0.8-0.01,1.2-0.01c1.15,6.81,2.95,17.17,3.84,24.36C327.25,589.07,324.53,589.61,321.8,590.07z M368.28,483.05
		c-0.7,24.96-0.99,49.92-1.42,74.89c-0.04,2.22-0.07,9.38,0,16.39c-9.18,5.07-18.87,9.11-28.93,12.04
		c0.53-6.58,1.46-17.58,0.91-23.17c-0.25-2.5,1.41-3.26,3.26-3.61c5.05-0.97,5.21-3.55,3.61-7.91c-3.36-9.21-6.84-18.4-8.56-28.14
		c-1.08-6.09,0.24-11.69,4.53-15.67c12.19-11.3,17.58-26.45,24.29-40.9c0.62-1.34,1.3-2.65,1.96-3.98
		C369.01,469.82,368.46,476.43,368.28,483.05z M393.77,555.08c-2.74,2.48-5.55,4.84-8.44,7.08c-0.57,0.33-1.13,0.67-1.67,1.04
		c1.52-17.54,3.03-35.08,4.55-52.62c0.32,0.01,0.63,0.01,0.95,0.02c1.59,13.68,3.08,27.37,4.81,41.03
		C394.14,552.98,394.05,554.11,393.77,555.08z M410.54,537.1c-1.58-24.84-1.47-48.88-0.38-73.11c2.44,5.02,4.81,10.07,7.34,15.04
		c1.73,3.41,3.52,6.82,5.57,10.05c1.92,3.01,4.83,4.14,8.23,2.57c3.23-1.49,4.07-4.25,3.1-7.53c-1.04-3.51-2.12-7.02-3.35-10.47
		c-4.02-11.3-8.17-22.56-12.16-33.87c-5.87-16.65-14.74-22.6-32.35-21.47c-5.2,0.33-10.21,1.6-14.98,3.69
		c-2.82,1.23-5.18,2.92-7.03,5.08c-2.21,2.57-3.14,5.15-3.54,6.29c-1.68,4.8-8.41,24.24-17.42,51.09c-0.37,1.4-0.78,2.64-1.22,3.76
		c-0.06-0.06-0.11-0.11-0.16-0.17c-2.42-2.42-5.7-3.34-8.35-4.08c0.71-1.5,1.13-3.17,1.13-4.94c0-6.35-5.15-11.5-11.5-11.5
		c-6.35,0-11.5,5.15-11.5,11.5c0,1.62,0.34,3.17,0.95,4.57c-3.01,0.78-6.26,1.78-7.86,3.38c-4.15,4.15-3.36,7.23-2.32,8.27
		c1.04,1.04,3.07,1.88,7.23-2.27c2.22-2.22,3.18-5.15,3.89-7.67c2.05,3.14,5.59,5.22,9.62,5.22c3.93,0,7.39-1.97,9.47-4.98
		c0.76,2.87,1.74,5.88,3.26,7.4c0.74,0.74,1.45,1.32,2.11,1.77c-0.96,0.96-1.92,1.64-2.81,2.12c-1.41,0.77-2.09,0.78-9.15,2.17
		c-11.72,2.32-12.8,2.86-13.62,3.47c-3.12,2.32-5.19,6.04-7.24,11.93c-1.47,4.21-2.57,8.58-5.42,13.52
		c-2.2-6.3-4.22-11.67-5.93-17.13c-3.04-9.72-8.69-14.21-18.93-14.7c-1.5-0.07-3.01-0.04-4.49-0.2
		c-9.71-1.04-13.28-4.38-16.41-13.45c-5.11-14.8-10.87-29.38-15.95-44.19c-2.61-7.61-5.23-14.8-13.74-17.73
		c-10.54-3.63-20.94-3.55-31.16,1.06c-4.66,2.1-7.57,5.94-9.32,10.63c-6.04,16.24-11.99,32.51-18,48.76
		c-1.37,3.7-1.22,7.19,2.7,8.97c4.07,1.86,7.11-0.15,8.98-3.9c4.16-8.31,8.23-16.65,12.7-25.74c0.85,3.2,0.09,5.5-0.43,7.83
		c-3.25,14.49-8.17,28.5-12.45,42.69c-1.27,4.21-0.02,5.66,3.93,6.45c9.45,1.89,9.43,2.01,9.5,11.86c0.03,3.62,0,7.24,0,11.07
		c0.19,0.22-0.01,2.13-0.21,4.19c-23.64-26.33-36.57-59.99-36.57-95.64c0-38.29,14.91-74.29,41.99-101.36
		c27.08-27.08,63.07-41.99,101.36-41.99c38.29,0,74.29,14.91,101.36,41.99c27.07,27.08,41.99,63.07,41.99,101.36
		C440.99,481.18,430.28,511.98,410.54,537.1z"/>
</g>
</svg>
